<svg width="531" height="481" viewBox="0 0 531 481" fill="none" xmlns="http://www.w3.org/2000/svg">
<path d="M451.281 38.0989C500.169 74.0859 527.329 140.628 530.045 204.454C533.44 268.28 511.712 329.39 477.762 376.92C443.133 425.129 395.603 459.079 344.678 472.659C293.074 486.918 238.754 480.128 178.323 467.906C117.892 455.684 51.3503 437.351 20.7953 393.895C-9.08072 350.439 -2.96974 281.86 15.3633 222.108C34.3753 162.356 65.6093 112.11 109.065 74.7649C152.521 36.7409 207.52 12.2969 269.988 3.4699C332.456 -5.3571 403.072 1.43289 451.281 38.0989Z" fill="url(#paint0_linear_357_89)"/>
<g clip-path="url(#clip0_357_89)">
<path d="M438.524 370.857C442.006 377.011 439.053 397.793 439.053 397.793C439.053 397.793 419.718 389.611 416.237 383.46C414.569 380.505 414.143 377.01 415.052 373.741C415.96 370.472 418.13 367.698 421.084 366.028C424.037 364.358 427.533 363.928 430.804 364.834C434.074 365.739 436.851 367.906 438.524 370.857Z" fill="#F1F1F1"/>
<path d="M439.333 397.767L438.922 397.853C434.966 379.062 421.151 366.318 421.012 366.192L421.294 365.881C421.434 366.009 435.348 378.839 439.333 397.767Z" fill="white"/>
<path d="M470.162 377.864C465.437 386.433 438.799 398.041 438.799 398.041C438.799 398.041 434.407 369.323 439.129 360.757C441.398 356.642 445.209 353.598 449.724 352.293C454.238 350.988 459.086 351.529 463.201 353.797C467.316 356.066 470.362 359.876 471.667 364.389C472.972 368.903 472.431 373.75 470.162 377.864Z" fill="#F1F1F1"/>
<path d="M439.033 398.352L438.633 397.931C457.909 379.629 462.899 354.102 462.947 353.847L463.518 353.954C463.47 354.211 458.449 379.917 439.033 398.352Z" fill="white"/>
<path d="M169.356 312.978C166.307 312.968 163.272 312.575 160.321 311.809L159.74 311.649L159.2 311.378C139.695 301.601 123.24 288.686 110.291 272.993C99.572 259.927 91.2152 245.091 85.596 229.153C78.8764 210.071 75.6436 189.936 76.052 169.711C76.0602 169.286 76.0672 168.958 76.0672 168.732C76.0672 158.901 81.5258 150.274 89.9737 146.755C96.4393 144.061 155.144 119.954 159.385 118.212C167.373 114.211 175.895 117.551 177.259 118.135C180.317 119.385 234.586 141.577 246.313 147.16C258.4 152.914 261.625 163.251 261.625 168.452C261.625 191.997 257.546 214.002 249.502 233.855C243.005 249.925 233.798 264.761 222.28 277.716C200.058 302.718 177.831 311.581 177.616 311.659C174.96 312.573 172.165 313.019 169.356 312.978ZM164.129 300.033C166.056 300.465 170.492 301.113 173.384 300.058C177.058 298.718 195.662 289.073 213.047 269.513C237.067 242.488 249.255 208.515 249.273 168.539C249.23 167.729 248.655 161.952 241.003 158.31C229.503 152.835 173.095 129.775 172.527 129.542L172.371 129.476C171.189 128.981 167.427 127.938 164.834 129.296L164.315 129.538C163.686 129.797 101.37 155.385 94.7244 158.154C90.0754 160.09 88.4189 164.888 88.4189 168.732C88.4189 169.013 88.4117 169.422 88.4014 169.95C87.8702 197.304 94.2014 264.613 164.129 300.033Z" fill="#3F3D56"/>
<path d="M161.968 123.827C161.968 123.827 99.0862 149.648 92.3489 152.454C85.6115 155.261 82.2429 161.997 82.2429 168.732C82.2429 175.468 77.1899 263.362 161.968 305.859C161.968 305.859 169.662 307.987 175.5 305.859C181.338 303.73 255.448 267.806 255.448 168.452C255.448 168.452 255.448 158.348 243.658 152.735C231.868 147.122 174.864 123.827 174.864 123.827C174.864 123.827 167.863 120.74 161.968 123.827Z" fill="#6C63FF"/>
<path opacity="0.1" d="M168.706 144.034V281.779C168.706 281.779 105.263 251.247 105.824 170.978L168.706 144.034Z" fill="black"/>
<path d="M169.532 243.033L149.322 217.053L161.075 207.915L170.645 220.215L202.971 186.097L213.781 196.337L169.532 243.033Z" fill="white"/>
<path d="M472.535 399.274H287.866C287.737 399.274 287.614 399.223 287.523 399.132C287.432 399.041 287.381 398.918 287.381 398.789C287.381 398.661 287.432 398.538 287.523 398.447C287.614 398.356 287.737 398.305 287.866 398.305H472.535C472.663 398.305 472.786 398.356 472.877 398.447C472.968 398.538 473.019 398.661 473.019 398.789C473.019 398.918 472.968 399.041 472.877 399.132C472.786 399.223 472.663 399.274 472.535 399.274Z" fill="#CACACA"/>
<path d="M341.248 391.635L348.743 391.635L352.31 362.728L341.246 362.728L341.248 391.635Z" fill="#FFB8B8"/>
<path d="M339.336 389.188L354.099 389.188H354.099C356.594 389.188 358.987 390.179 360.751 391.943C362.516 393.707 363.507 396.099 363.507 398.594V398.899L339.336 398.9L339.336 389.188Z" fill="#2F2E41"/>
<path d="M366.453 391.635L373.948 391.635L377.515 362.728L366.451 362.728L366.453 391.635Z" fill="#FFB8B8"/>
<path d="M364.539 389.188L379.302 389.188H379.302C381.797 389.188 384.19 390.179 385.955 391.943C387.719 393.707 388.71 396.099 388.71 398.594V398.899L364.54 398.9L364.539 389.188Z" fill="#2F2E41"/>
<path d="M353.031 290.12L354.829 381.829L340.283 380.927L330.191 322.514L327.004 282.686L353.031 290.12Z" fill="#2F2E41"/>
<path d="M377.994 274.72L380.033 383.282L363.068 382.798L359.404 318.265L353.03 294.9L327.004 282.686L331.253 253.479L369.496 252.948L377.994 274.72Z" fill="#2F2E41"/>
<path d="M348.747 177.542C355.931 177.542 361.755 171.719 361.755 164.536C361.755 157.353 355.931 151.531 348.747 151.531C341.562 151.531 335.738 157.353 335.738 164.536C335.738 171.719 341.562 177.542 348.747 177.542Z" fill="#FFB8B8"/>
<path d="M359.535 183.02L361.528 186.038L366.839 200.907L362.59 258.789L337.626 259.321L334.439 192.941L341.115 184.599L359.535 183.02Z" fill="#CCCCCC"/>
<path d="M324.347 194.535L320.098 194.004C320.098 194.004 319.036 194.535 318.505 198.252C317.973 201.969 311.6 234.893 311.6 234.893L320.098 275.251L329.659 262.507L323.816 240.203L329.659 217.9L324.347 194.535Z" fill="#2F2E41"/>
<path d="M378.524 194.004H381.711L389.678 237.017L382.242 270.472L374.806 258.258L376.93 244.983L375.869 233.3L372.15 226.396L378.524 194.004Z" fill="#2F2E41"/>
<path d="M356.433 164.536L354.068 163.945C354.068 163.945 352.294 153.895 348.155 155.077C344.016 156.26 333.373 157.442 333.373 152.713C333.373 147.984 343.425 143.845 349.338 144.437C355.251 145.028 362.802 146.989 364.711 155.669C367.772 169.583 358.398 173.097 358.398 173.097L358.554 172.591C358.987 171.184 359.018 169.684 358.643 168.261C358.268 166.837 357.503 165.547 356.433 164.536Z" fill="#2F2E41"/>
<path d="M320.629 194.004L337.626 187.1L341.609 184.179L353.56 237.017L359.137 182.586L381.18 194.004L373.744 230.114L372.682 243.921L375.868 255.072C375.868 255.072 387.023 263.038 383.305 271.534C379.586 280.031 375.337 280.562 375.337 280.562C375.337 280.562 357.278 263.569 356.216 259.32C355.154 255.072 353.56 247.638 353.56 247.638C353.56 247.638 344.531 281.624 333.908 281.093C323.285 280.562 323.285 269.41 323.285 269.41L325.94 257.727L330.19 245.514L328.065 225.334L320.629 194.004Z" fill="#2F2E41"/>
</g>
<defs>
<linearGradient id="paint0_linear_357_89" x1="0" y1="480.666" x2="478.346" y2="-47.1676" gradientUnits="userSpaceOnUse">
<stop stop-color="#BCD7FF"/>
<stop offset="1" stop-color="#3486FF"/>
</linearGradient>
<clipPath id="clip0_357_89">
<rect width="397" height="283" fill="white" transform="translate(76.0195 116.274)"/>
</clipPath>
</defs>
</svg>
